<?xml version="1.0" encoding="UTF-8" standalone="no"?>
<!-- Created with Inkscape (http://www.inkscape.org/) -->

<svg
   width="72"
   height="72"
   viewBox="0 0 19.05 19.05"
   version="1.1"
   id="svg1"
   inkscape:version="1.4.4 (dcaf3e7, 2026-05-05)"
   sodipodi:docname="ic_weather_801d.svg"
   xmlns:inkscape="http://www.inkscape.org/namespaces/inkscape"
   xmlns:sodipodi="http://sodipodi.sourceforge.net/DTD/sodipodi-0.dtd"
   xmlns="http://www.w3.org/2000/svg"
   xmlns:svg="http://www.w3.org/2000/svg"
   xmlns:rdf="http://www.w3.org/1999/02/22-rdf-syntax-ns#"
   xmlns:cc="http://creativecommons.org/ns#"
   xmlns:dc="http://purl.org/dc/elements/1.1/">
  <title
     id="title4">Few clouds</title>
  <sodipodi:namedview
     id="namedview1"
     pagecolor="#ffffff"
     bordercolor="#111111"
     borderopacity="1"
     inkscape:showpageshadow="0"
     inkscape:pageopacity="0"
     inkscape:pagecheckerboard="true"
     inkscape:deskcolor="#d1d1d1"
     inkscape:document-units="px"
     showborder="true"
     showgrid="true"
     inkscape:zoom="11.313709"
     inkscape:cx="31.554639"
     inkscape:cy="33.720153"
     inkscape:window-width="1920"
     inkscape:window-height="1017"
     inkscape:window-x="-8"
     inkscape:window-y="-8"
     inkscape:window-maximized="1"
     inkscape:current-layer="layer1">
    <inkscape:grid
       id="grid1"
       units="px"
       originx="0"
       originy="0"
       spacingx="0.26458333"
       spacingy="0.26458333"
       empcolor="#0099e5"
       empopacity="0.30196078"
       color="#0099e5"
       opacity="0.14901961"
       empspacing="5"
       enabled="true"
       visible="true"
       dotted="false" />
  </sodipodi:namedview>
  <defs
     id="defs1" />
  <g
     inkscape:label="Layer 1"
     inkscape:groupmode="layer"
     id="layer1">
    <circle
       style="fill:#ffcc00;stroke-width:0.454221"
       id="path2"
       cx="9.5249996"
       cy="9.5249996"
       r="4.6772165" />
    <path
       id="path1"
       style="fill:#e6e6e6;fill-opacity:1;stroke-width:0.402511"
       d="m 12.513312,10.88873 a 1.4538114,1.4538114 0 0 0 -1.450614,1.358677 1.0648625,1.0648625 0 0 0 -0.931647,1.056448 1.0648625,1.0648625 0 0 0 1.047088,1.064768 v 0.0012 h 3.661273 a 1.0708702,1.0708702 0 0 0 0.03765,6.04e-4 1.0708702,1.0708702 0 0 0 0.0096,-6.04e-4 h 0.02538 v -0.0017 a 1.0708702,1.0708702 0 0 0 1.036068,-1.068526 1.0708702,1.0708702 0 0 0 -0.871534,-1.05208 1.0648625,1.0648625 0 0 0 -1.033359,-0.807885 1.0648625,1.0648625 0 0 0 -0.346534,0.05803 1.4538114,1.4538114 0 0 0 -1.18333,-0.609033 z" />
  </g>
  <metadata
     id="metadata1">
    <rdf:RDF>
      <cc:Work
         rdf:about="">
        <dc:title>Few clouds</dc:title>
      </cc:Work>
    </rdf:RDF>
  </metadata>
</svg>
